<?xml version="1.0" encoding="UTF-8"?>
<svg xmlns="http://www.w3.org/2000/svg" xmlns:xlink="http://www.w3.org/1999/xlink" width="20px" height="20px" viewBox="0 0 20 23" version="1.1">
<defs>
<linearGradient id="linear0" gradientUnits="userSpaceOnUse" x1="75.074432" y1="108.585274" x2="74.617279" y2="-24.401249" gradientTransform="matrix(0.147059,0,0,0.141975,-2.466177,-0.567759)">
<stop offset="0" style="stop-color:rgb(0%,0%,0%);stop-opacity:1;"/>
<stop offset="1" style="stop-color:rgb(0%,0%,0%);stop-opacity:0;"/>
</linearGradient>
</defs>
<g id="surface1">
<path style=" stroke:none;fill-rule:nonzero;fill:url(#linear0);" d="M 19.648438 17.925781 C 19.285156 18.726562 18.859375 19.46875 18.367188 20.148438 C 17.691406 21.074219 17.140625 21.714844 16.714844 22.074219 C 16.058594 22.65625 15.351562 22.957031 14.59375 22.972656 C 14.054688 22.972656 13.398438 22.824219 12.636719 22.523438 C 11.871094 22.222656 11.171875 22.074219 10.527344 22.074219 C 9.855469 22.074219 9.132812 22.222656 8.359375 22.523438 C 7.585938 22.824219 6.960938 22.984375 6.484375 23 C 5.761719 23.027344 5.039062 22.71875 4.316406 22.074219 C 3.855469 21.683594 3.28125 21.019531 2.589844 20.078125 C 1.851562 19.074219 1.242188 17.910156 0.765625 16.578125 C 0.257812 15.144531 0 13.753906 0 12.410156 C 0 10.867188 0.34375 9.539062 1.035156 8.425781 C 1.578125 7.527344 2.300781 6.824219 3.207031 6.304688 C 4.109375 5.785156 5.085938 5.523438 6.140625 5.507812 C 6.714844 5.507812 7.46875 5.679688 8.410156 6.015625 C 9.34375 6.355469 9.945312 6.527344 10.207031 6.527344 C 10.40625 6.527344 11.074219 6.324219 12.203125 5.925781 C 13.273438 5.554688 14.175781 5.398438 14.917969 5.460938 C 16.921875 5.617188 18.425781 6.378906 19.429688 7.753906 C 17.636719 8.800781 16.75 10.269531 16.765625 12.15625 C 16.78125 13.621094 17.332031 14.84375 18.417969 15.8125 C 18.910156 16.261719 19.457031 16.609375 20.066406 16.859375 C 19.933594 17.230469 19.796875 17.582031 19.648438 17.925781 Z M 15.050781 0.460938 C 15.050781 1.609375 14.613281 2.683594 13.746094 3.679688 C 12.699219 4.859375 11.433594 5.542969 10.058594 5.433594 C 10.042969 5.296875 10.03125 5.152344 10.03125 5 C 10.03125 3.894531 10.53125 2.714844 11.414062 1.746094 C 11.855469 1.257812 12.417969 0.851562 13.097656 0.527344 C 13.777344 0.207031 14.421875 0.03125 15.023438 0 C 15.042969 0.152344 15.050781 0.308594 15.050781 0.460938 Z M 15.050781 0.460938 "/>
</g>
</svg>
