<?xml version="1.0" encoding="UTF-8"?>
<svg xmlns="http://www.w3.org/2000/svg" xmlns:xlink="http://www.w3.org/1999/xlink" width="20px" height="20px" viewBox="0 0 20 20" version="1.1">
<g id="surface1">
<path style=" stroke:none;fill-rule:nonzero;fill:rgb(25.882354%,52.156866%,95.686275%);fill-opacity:1;" d="M 18.800781 10.207031 C 18.800781 9.558594 18.742188 8.933594 18.632812 8.332031 L 10 8.332031 L 10 11.882812 L 14.933594 11.882812 C 14.714844 13.023438 14.066406 13.992188 13.089844 14.640625 L 13.089844 16.949219 L 16.066406 16.949219 C 17.800781 15.351562 18.800781 13 18.800781 10.207031 Z M 18.800781 10.207031 "/>
<path style=" stroke:none;fill-rule:nonzero;fill:rgb(20.392157%,65.882355%,32.549021%);fill-opacity:1;" d="M 10 19.167969 C 12.476562 19.167969 14.550781 18.351562 16.066406 16.949219 L 13.089844 14.640625 C 12.273438 15.191406 11.234375 15.523438 10 15.523438 C 7.617188 15.523438 5.589844 13.917969 4.867188 11.75 L 1.816406 11.75 L 1.816406 14.117188 C 3.324219 17.109375 6.417969 19.167969 10 19.167969 Z M 10 19.167969 "/>
<path style=" stroke:none;fill-rule:nonzero;fill:rgb(98.431373%,73.725492%,1.960784%);fill-opacity:1;" d="M 4.867188 11.742188 C 4.683594 11.191406 4.574219 10.609375 4.574219 10 C 4.574219 9.390625 4.683594 8.808594 4.867188 8.257812 L 4.867188 5.890625 L 1.816406 5.890625 C 1.191406 7.125 0.832031 8.515625 0.832031 10 C 0.832031 11.484375 1.191406 12.875 1.816406 14.109375 L 4.191406 12.257812 Z M 4.867188 11.742188 "/>
<path style=" stroke:none;fill-rule:nonzero;fill:rgb(91.764706%,26.274511%,20.784314%);fill-opacity:1;" d="M 10 4.484375 C 11.351562 4.484375 12.550781 4.949219 13.507812 5.851562 L 16.132812 3.226562 C 14.542969 1.742188 12.476562 0.832031 10 0.832031 C 6.417969 0.832031 3.324219 2.890625 1.816406 5.890625 L 4.867188 8.257812 C 5.589844 6.089844 7.617188 4.484375 10 4.484375 Z M 10 4.484375 "/>
</g>
</svg>
