<?xml version="1.0" encoding="UTF-8"?>
<svg xmlns="http://www.w3.org/2000/svg" xmlns:xlink="http://www.w3.org/1999/xlink" width="20px" height="20px" viewBox="0 0 20 20" version="1.1">
<g id="surface1">
<path style=" stroke:none;fill-rule:nonzero;fill:rgb(12.941177%,12.941177%,12.941177%);fill-opacity:1;" d="M 10.628906 1.667969 C 11.59375 1.667969 12.386719 2.394531 12.488281 3.332031 L 13.957031 3.332031 C 14.949219 3.332031 15.761719 4.105469 15.828125 5.078125 L 15.832031 5.207031 L 15.832031 9.3125 C 15.433594 9.21875 15.011719 9.167969 14.582031 9.167969 L 14.582031 5.207031 C 14.582031 4.890625 14.347656 4.628906 14.042969 4.589844 L 13.957031 4.582031 L 12.179688 4.585938 C 11.84375 5.082031 11.273438 5.410156 10.628906 5.410156 L 7.707031 5.410156 C 7.058594 5.410156 6.488281 5.082031 6.152344 4.585938 L 4.375 4.582031 C 4.058594 4.582031 3.796875 4.820312 3.753906 5.125 L 3.75 5.207031 L 3.75 16.460938 C 3.75 16.777344 3.984375 17.039062 4.289062 17.082031 L 4.375 17.085938 L 9.777344 17.085938 C 10.019531 17.546875 10.324219 17.96875 10.679688 18.335938 L 4.375 18.335938 C 3.382812 18.335938 2.570312 17.566406 2.503906 16.589844 L 2.5 16.460938 L 2.5 5.207031 C 2.5 4.214844 3.269531 3.402344 4.246094 3.335938 L 4.375 3.332031 L 5.84375 3.332031 C 5.945312 2.394531 6.742188 1.667969 7.707031 1.667969 Z M 10.628906 2.917969 L 7.707031 2.917969 C 7.363281 2.917969 7.082031 3.195312 7.082031 3.539062 C 7.082031 3.882812 7.363281 4.160156 7.707031 4.160156 L 10.628906 4.160156 C 10.972656 4.160156 11.25 3.882812 11.25 3.539062 C 11.25 3.195312 10.972656 2.917969 10.628906 2.917969 Z M 10.628906 2.917969 "/>
<path style=" stroke:none;fill-rule:nonzero;fill:rgb(12.941177%,12.941177%,12.941177%);fill-opacity:1;" d="M 6.875 11.664062 L 10.019531 11.664062 C 9.773438 12.050781 9.574219 12.46875 9.429688 12.914062 L 7.082031 12.914062 L 7.082031 13.117188 C 7.082031 13.808594 7.664062 14.164062 9.167969 14.164062 L 9.183594 14.164062 C 9.171875 14.304688 9.167969 14.441406 9.167969 14.582031 C 9.167969 14.867188 9.1875 15.144531 9.230469 15.414062 L 9.167969 15.414062 C 7.058594 15.414062 5.832031 14.660156 5.832031 13.117188 L 5.832031 12.703125 C 5.832031 12.128906 6.300781 11.664062 6.875 11.664062 Z M 6.875 11.664062 "/>
<path style=" stroke:none;fill-rule:nonzero;fill:rgb(12.941177%,12.941177%,12.941177%);fill-opacity:1;" d="M 9.167969 6.664062 C 10.316406 6.664062 11.25 7.59375 11.25 8.746094 C 11.25 9.898438 10.316406 10.828125 9.167969 10.828125 C 8.015625 10.828125 7.082031 9.898438 7.082031 8.746094 C 7.082031 7.59375 8.015625 6.664062 9.167969 6.664062 Z M 9.167969 7.914062 C 8.707031 7.914062 8.332031 8.285156 8.332031 8.746094 C 8.332031 9.207031 8.707031 9.578125 9.167969 9.578125 C 9.625 9.578125 10 9.207031 10 8.746094 C 10 8.285156 9.625 7.914062 9.167969 7.914062 Z M 9.167969 7.914062 "/>
<path style=" stroke:none;fill-rule:nonzero;fill:rgb(12.941177%,12.941177%,12.941177%);fill-opacity:1;" d="M 19.167969 14.582031 C 19.167969 12.050781 17.113281 10 14.582031 10 C 12.050781 10 10 12.050781 10 14.582031 C 10 17.113281 12.050781 19.167969 14.582031 19.167969 C 17.113281 19.167969 19.167969 17.113281 19.167969 14.582031 Z M 15 15 L 15 17.085938 C 15 17.316406 14.8125 17.503906 14.585938 17.503906 C 14.355469 17.503906 14.167969 17.316406 14.167969 17.085938 L 14.167969 15 L 12.082031 15 C 11.851562 15 11.664062 14.8125 11.664062 14.582031 C 11.664062 14.351562 11.851562 14.167969 12.082031 14.167969 L 14.167969 14.167969 L 14.167969 12.082031 C 14.167969 11.851562 14.351562 11.667969 14.582031 11.667969 C 14.8125 11.667969 15 11.851562 15 12.082031 L 15 14.167969 L 17.085938 14.167969 C 17.316406 14.167969 17.503906 14.351562 17.503906 14.582031 C 17.503906 14.8125 17.316406 15 17.085938 15 Z M 15 15 "/>
</g>
</svg>
